<svg width="100" height="100" viewBox="0 0 100 100" fill="none" xmlns="http://www.w3.org/2000/svg">
<path d="M58.9814 50L84.1207 24.8606C85.3138 23.6696 85.985 22.0534 85.9865 20.3676C85.9879 18.6818 85.3197 17.0644 84.1287 15.8713C82.9377 14.6782 81.3215 14.0071 79.6357 14.0056C77.9498 14.0041 76.3325 14.6724 75.1394 15.8634L50 41.0028L24.8606 15.8634C23.6675 14.6703 22.0493 14 20.362 14C18.6747 14 17.0565 14.6703 15.8634 15.8634C14.6703 17.0565 14 18.6747 14 20.362C14 22.0493 14.6703 23.6675 15.8634 24.8606L41.0028 50L15.8634 75.1394C14.6703 76.3325 14 77.9507 14 79.638C14 81.3253 14.6703 82.9435 15.8634 84.1366C17.0565 85.3297 18.6747 86 20.362 86C22.0493 86 23.6675 85.3297 24.8606 84.1366L50 58.9972L75.1394 84.1366C76.3325 85.3297 77.9507 86 79.638 86C81.3253 86 82.9435 85.3297 84.1366 84.1366C85.3297 82.9435 86 81.3253 86 79.638C86 77.9507 85.3297 76.3325 84.1366 75.1394L58.9814 50Z" fill="black"/>
</svg>
