<svg width="100" height="100" viewBox="0 0 100 100" fill="none" xmlns="http://www.w3.org/2000/svg">
<path d="M11.8333 79H89.1667C91.825 79 94 76.825 94 74.1667C94 71.5083 91.825 69.3333 89.1667 69.3333H11.8333C9.175 69.3333 7 71.5083 7 74.1667C7 76.825 9.175 79 11.8333 79ZM11.8333 54.8333H89.1667C91.825 54.8333 94 52.6583 94 50C94 47.3417 91.825 45.1667 89.1667 45.1667H11.8333C9.175 45.1667 7 47.3417 7 50C7 52.6583 9.175 54.8333 11.8333 54.8333ZM7 25.8333C7 28.4917 9.175 30.6667 11.8333 30.6667H89.1667C91.825 30.6667 94 28.4917 94 25.8333C94 23.175 91.825 21 89.1667 21H11.8333C9.175 21 7 23.175 7 25.8333Z" fill="black"/>
</svg>
